            <svg width="100%" height="100%" id="svg" viewBox="0 0 1440 690" xmlns="http://www.w3.org/2000/svg" class="transition duration-300 ease-in-out delay-150"><defs><linearGradient id="gradient" x1="60%" y1="99%" x2="40%" y2="1%"><stop offset="5%" stop-color="#9900ef"></stop><stop offset="95%" stop-color="#00008b"></stop></linearGradient></defs><path d="M 0,700 L 0,405 C 39.04273452814586,389.84605972173773 78.08546905629171,374.69211944347546 121,367 C 163.9145309437083,359.30788055652454 210.700858302979,359.07758194783594 249,334 C 287.299141697021,308.92241805216406 317.1110977317923,258.99755276518056 369,235 C 420.8889022682077,211.0024472348194 494.854750769852,212.93220699144177 546,201 C 597.145249230148,189.06779300855823 625.4698991888,163.2736192690524 660,119 C 694.5301008112,74.72638073094761 735.2656524749477,11.973315932348648 781,-16 C 826.7343475250523,-43.97331593234865 877.4674909114091,-37.166882998447 924,-41 C 970.5325090885909,-44.833117001553 1012.8643838794162,-59.30578393856061 1051,-96 C 1089.1356161205838,-132.6942160614394 1123.0749735709264,-191.6099812473106 1169,-230 C 1214.9250264290736,-268.3900187526894 1272.835721836878,-286.25429107219696 1320,-302 C 1367.164278163122,-317.74570892780304 1403.5821390815609,-331.3728544639015 1440,-345 L 1440,700 L 0,700 Z" stroke="none" stroke-width="0" fill="url(#gradient)" fill-opacity="0.265" class="transition-all duration-300 ease-in-out delay-150 path-0" transform="rotate(-180 720 350)"></path><defs><linearGradient id="gradient" x1="60%" y1="99%" x2="40%" y2="1%"><stop offset="5%" stop-color="#9900ef"></stop><stop offset="95%" stop-color="#00008b"></stop></linearGradient></defs><path d="M 0,700 L 0,545 C 28.501753969673402,556.9894248289858 57.003507939346804,568.9788496579715 110,553 C 162.9964920606532,537.0211503420285 240.4877222122861,493.0740261970998 282,453 C 323.5122777877139,412.9259738029002 329.04560321150876,376.72504555362934 369,357 C 408.95439678849124,337.27495444637066 483.32986494167903,334.0257915883829 540,311 C 596.670135058321,287.9742084116171 635.6349370217755,245.17178809283908 670,207 C 704.3650629782245,168.82821190716092 734.1303869712192,135.28705604026072 774,125 C 813.8696130287808,114.71294395973928 863.8435150933475,127.67998774611799 915,99 C 966.1564849066525,70.32001225388201 1018.4955526553913,-0.007007024732651246 1055,-22 C 1091.5044473446087,-43.99299297526735 1112.174274285087,-17.65195964718736 1154,-29 C 1195.825725714913,-40.34804035281264 1258.8073502042607,-89.38515438651791 1310,-125 C 1361.1926497957393,-160.6148456134821 1400.5963248978696,-182.80742280674104 1440,-205 L 1440,700 L 0,700 Z" stroke="none" stroke-width="0" fill="url(#gradient)" fill-opacity="0.4" class="transition-all duration-300 ease-in-out delay-150 path-1" transform="rotate(-180 720 350)"></path><defs><linearGradient id="gradient" x1="60%" y1="99%" x2="40%" y2="1%"><stop offset="5%" stop-color="#9900ef"></stop><stop offset="95%" stop-color="#00008b"></stop></linearGradient></defs><path d="M 0,700 L 0,685 C 51.363038962740774,718.5668075626993 102.72607792548155,752.1336151253987 152,735 C 201.27392207451845,717.8663848746013 248.45872726081467,650.0323470611047 281,610 C 313.54127273918533,569.9676529388953 331.4390130312599,557.7369966301824 372,534 C 412.5609869687401,510.26300336981757 475.78522061414606,475.0196664181655 533,438 C 590.214779385854,400.9803335818345 641.4201045121556,362.1843376971556 676,353 C 710.5798954878444,343.8156623028444 728.5343613372315,364.24298279321215 771,355 C 813.4656386627685,345.75701720678785 880.4424501389185,306.8437311299956 935,279 C 989.5575498610815,251.15626887000437 1031.695838107094,234.38209268680527 1067,209 C 1102.304161892906,183.61790731319473 1130.7741974327057,149.6278981227832 1171,115 C 1211.2258025672943,80.3721018772168 1263.2073721620839,45.10631482206194 1310,15 C 1356.7926278379161,-15.10631482206194 1398.3963139189582,-40.053157411030966 1440,-65 L 1440,700 L 0,700 Z" stroke="none" stroke-width="0" fill="url(#gradient)" fill-opacity="0.53" class="transition-all duration-300 ease-in-out delay-150 path-2" transform="rotate(-180 720 350)"></path><defs><linearGradient id="gradient" x1="60%" y1="99%" x2="40%" y2="1%"><stop offset="5%" stop-color="#9900ef"></stop><stop offset="95%" stop-color="#00008b"></stop></linearGradient></defs><path d="M 0,700 L 0,825 C 41.268227206805506,811.4103988001111 82.53645441361101,797.8207976002224 129,772 C 175.463545586389,746.1792023997776 227.1224095523615,708.1272083992216 277,706 C 326.8775904476385,703.8727916007784 374.9739073769432,737.6703688028913 409,708 C 443.0260926230568,678.3296311971087 462.98196093986576,585.1913163892131 500,561 C 537.0180390601342,536.8086836107869 591.0982488635941,581.5643656402565 644,568 C 696.9017511364059,554.4356343597435 748.625043605758,482.55122104976107 795,452 C 841.374956394242,421.44877895023893 882.4015767133742,432.2307501606994 924,413 C 965.5984232866258,393.7692498393006 1007.768649540745,344.52577830744144 1053,306 C 1098.231350459255,267.47422169255856 1146.5238251236456,239.66613660953502 1190,227 C 1233.4761748763544,214.33386339046498 1272.1360499646726,216.80967525441858 1313,194 C 1353.8639500353274,171.19032474558142 1396.9319750176637,123.09516237279071 1440,75 L 1440,700 L 0,700 Z" stroke="none" stroke-width="0" fill="url(#gradient)" fill-opacity="1" class="transition-all duration-300 ease-in-out delay-150 path-3" transform="rotate(-180 720 350)"></path></svg>
