<svg width="100%" height="100%" id="svg" viewBox="0 0 1440 690" xmlns="http://www.w3.org/2000/svg" class="transition duration-300 ease-in-out delay-150"><defs><linearGradient id="gradient" x1="60%" y1="99%" x2="40%" y2="1%"><stop offset="5%" stop-color="#000000"></stop><stop offset="95%" stop-color="#00008b"></stop></linearGradient></defs><path d="M 0,700 L 0,405 C 54.57796532434716,392.4101101609827 109.15593064869432,379.8202203219654 154,365 C 198.84406935130568,350.1797796780346 233.9542427295699,333.129228873121 268,311 C 302.0457572704301,288.870771126879 335.027098433026,261.6628641855507 380,233 C 424.972901566974,204.3371358144493 481.93736353832605,174.2193143846763 529,145 C 576.062636461674,115.78068561532372 613.2234474136694,87.45987827574422 654,66 C 694.7765525863306,44.54012172425579 739.168846806996,29.941172512346856 781,10 C 822.831153193004,-9.941172512346856 862.1011653583465,-35.22456832513163 904,-52 C 945.8988346416535,-68.77543167486837 990.4264917596186,-77.04289921182038 1031,-100 C 1071.5735082403814,-122.95710078817962 1108.1928676031796,-160.60383482758684 1156,-204 C 1203.8071323968204,-247.39616517241316 1262.802037827663,-296.5417614778323 1312,-321 C 1361.197962172337,-345.4582385221677 1400.5989810861684,-345.22911926108384 1440,-345 L 1440,700 L 0,700 Z" stroke="none" stroke-width="0" fill="url(#gradient)" fill-opacity="0.265" class="transition-all duration-300 ease-in-out delay-150 path-0"></path><defs><linearGradient id="gradient" x1="60%" y1="99%" x2="40%" y2="1%"><stop offset="5%" stop-color="#000000"></stop><stop offset="95%" stop-color="#00008b"></stop></linearGradient></defs><path d="M 0,700 L 0,545 C 49.56914146681801,543.9775197930298 99.13828293363602,542.9550395860597 143,521 C 186.86171706636398,499.0449604139404 225.01600973227386,456.15736144879133 259,446 C 292.98399026772614,435.84263855120867 322.79767813726835,458.41551461877503 373,446 C 423.20232186273165,433.58448538122497 493.79327771865303,386.1805800761086 539,343 C 584.206722281347,299.8194199238914 604.0292109881198,260.86216507679046 640,231 C 675.9707890118802,201.13783492320957 728.0898783288679,180.37075961672974 770,151 C 811.9101216711321,121.62924038327026 843.6112756964085,83.65479645629065 892,67 C 940.3887243035915,50.34520354370935 1005.4650188854987,55.01005455810767 1052,42 C 1098.5349811145013,28.989945441892335 1126.5286487615965,-1.695014688721301 1168,-23 C 1209.4713512384035,-44.3049853112787 1264.4203860681152,-56.229995803222494 1312,-85 C 1359.5796139318848,-113.7700041967775 1399.7898069659423,-159.38500209838875 1440,-205 L 1440,700 L 0,700 Z" stroke="none" stroke-width="0" fill="url(#gradient)" fill-opacity="0.4" class="transition-all duration-300 ease-in-out delay-150 path-1"></path><defs><linearGradient id="gradient" x1="60%" y1="99%" x2="40%" y2="1%"><stop offset="5%" stop-color="#000000"></stop><stop offset="95%" stop-color="#00008b"></stop></linearGradient></defs><path d="M 0,700 L 0,685 C 33.11556012813453,656.8887623756241 66.23112025626907,628.777524751248 116,636 C 165.76887974373093,643.222475248752 232.1910791030583,685.7786633706321 275,655 C 317.8089208969417,624.2213366293679 337.00456333149765,520.1078217662235 383,489 C 428.99543666850235,457.89217823377646 501.7906675709512,499.7900495644738 541,493 C 580.2093324290488,486.2099504355262 585.8327663846976,430.7319799758817 630,379 C 674.1672336153024,327.2680200241183 756.8782668902587,279.2820305319991 806,265 C 855.1217331097413,250.71796946800086 870.6541660542678,270.1398978961218 907,256 C 943.3458339457322,241.8601021038782 1000.5050688926706,194.15837788351377 1054,151 C 1107.4949311073294,107.84162211648625 1157.3255583750504,69.22659056982322 1198,41 C 1238.6744416249496,12.77340943017678 1270.1926976071286,-5.064740162806636 1309,-21 C 1347.8073023928714,-36.935259837193364 1393.9036511964357,-50.967629918596685 1440,-65 L 1440,700 L 0,700 Z" stroke="none" stroke-width="0" fill="url(#gradient)" fill-opacity="0.53" class="transition-all duration-300 ease-in-out delay-150 path-2"></path><defs><linearGradient id="gradient" x1="60%" y1="99%" x2="40%" y2="1%"><stop offset="5%" stop-color="#000000"></stop><stop offset="95%" stop-color="#00008b"></stop></linearGradient></defs><path d="M 0,700 L 0,825 C 33.49114869519177,810.5578544373396 66.98229739038354,796.1157088746793 109,797 C 151.01770260961646,797.8842911253207 201.56195913365758,814.0950189386226 246,801 C 290.4380408663424,787.9049810613774 328.76986607498606,745.5042153708305 377,706 C 425.23013392501394,666.4957846291695 483.3585765663985,629.8881195780557 537,589 C 590.6414234336015,548.1118804219443 639.7958276594201,502.94330631694703 677,491 C 714.2041723405799,479.05669368305297 739.4581127959214,500.3386551541563 773,493 C 806.5418872040786,485.6613448458437 848.3717211568942,449.7020730664277 894,417 C 939.6282788431058,384.2979269335723 989.0550025765024,354.8530525801328 1042,325 C 1094.9449974234976,295.1469474198672 1151.4082685370956,264.88571661304115 1195,223 C 1238.5917314629044,181.11428338695885 1269.3119232751155,127.60408096770253 1308,101 C 1346.6880767248845,74.39591903229747 1393.3440383624422,74.69795951614873 1440,75 L 1440,700 L 0,700 Z" stroke="none" stroke-width="0" fill="url(#gradient)" fill-opacity="1" class="transition-all duration-300 ease-in-out delay-150 path-3"></path></svg>       
